<svg xmlns="http://www.w3.org/2000/svg" width="200" height="200" viewBox="0 0 200 200">
  <defs>
    <linearGradient id="gradient" x1="0%" y1="0%" x2="100%" y2="100%">
      <stop offset="0%" stop-color="#134077" />
      <stop offset="100%" stop-color="#0a2144" />
    </linearGradient>
  </defs>
  
  <!-- Shield Background -->
  <path d="M100,10 L180,50 L180,120 C180,160 140,180 100,190 C60,180 20,160 20,120 L20,50 L100,10 Z" fill="url(#gradient)" />
  
  <!-- Emblem - Ashoka Chakra (simplified) -->
  <circle cx="100" cy="100" r="40" fill="#e63946" />
  <circle cx="100" cy="100" r="35" fill="#ffffff" />
  <circle cx="100" cy="100" r="5" fill="#134077" />
  
  <!-- Spokes of the wheel -->
  <g stroke="#134077" stroke-width="2">
    <line x1="100" y1="65" x2="100" y2="75" />
    <line x1="100" y1="125" x2="100" y2="135" />
    <line x1="65" y1="100" x2="75" y2="100" />
    <line x1="125" y1="100" x2="135" y2="100" />
    
    <line x1="76" y1="76" x2="83" y2="83" />
    <line x1="117" y1="117" x2="124" y2="124" />
    <line x1="76" y1="124" x2="83" y2="117" />
    <line x1="117" y1="83" x2="124" y2="76" />
    
    <line x1="89" y1="67" x2="93" y2="78" />
    <line x1="107" y1="122" x2="111" y2="133" />
    <line x1="67" y1="89" x2="78" y2="93" />
    <line x1="122" y1="107" x2="133" y2="111" />
    
    <line x1="67" y1="111" x2="78" y2="107" />
    <line x1="122" y1="93" x2="133" y2="89" />
    <line x1="89" y1="133" x2="93" y2="122" />
    <line x1="107" y1="78" x2="111" y2="67" />
  </g>
  
  <!-- Tri-color stripes -->
  <rect x="40" y="30" width="120" height="10" fill="#ff9933" />
  <rect x="40" y="40" width="120" height="10" fill="#ffffff" />
  <rect x="40" y="50" width="120" height="10" fill="#138808" />
</svg> 